<svg width="19" height="18" viewBox="0 0 19 18" fill="none" xmlns="http://www.w3.org/2000/svg">
<path d="M9.50371 4.50781C7.09032 4.50781 5.14367 6.51172 5.14367 8.99609C5.14367 11.4805 7.09032 13.4844 9.50371 13.4844C11.9171 13.4844 13.8638 11.4805 13.8638 8.99609C13.8638 6.51172 11.9171 4.50781 9.50371 4.50781ZM9.50371 11.9141C7.94411 11.9141 6.66911 10.6055 6.66911 8.99609C6.66911 7.38672 7.94032 6.07812 9.50371 6.07812C11.0671 6.07812 12.3383 7.38672 12.3383 8.99609C12.3383 10.6055 11.0633 11.9141 9.50371 11.9141ZM15.0591 4.32422C15.0591 4.90625 14.6037 5.37109 14.0421 5.37109C13.4767 5.37109 13.0251 4.90234 13.0251 4.32422C13.0251 3.74609 13.4805 3.27734 14.0421 3.27734C14.6037 3.27734 15.0591 3.74609 15.0591 4.32422ZM17.9468 5.38672C17.8823 3.98437 17.5711 2.74219 16.5731 1.71875C15.5789 0.695312 14.3722 0.375 13.01 0.304687C11.6059 0.222656 7.39768 0.222656 5.99367 0.304687C4.63518 0.371094 3.42849 0.691406 2.4305 1.71484C1.43251 2.73828 1.12514 3.98047 1.05684 5.38281C0.977148 6.82812 0.977148 11.1602 1.05684 12.6055C1.12134 14.0078 1.43251 15.25 2.4305 16.2734C3.42849 17.2969 4.63139 17.6172 5.99367 17.6875C7.39768 17.7695 11.6059 17.7695 13.01 17.6875C14.3722 17.6211 15.5789 17.3008 16.5731 16.2734C17.5673 15.25 17.8785 14.0078 17.9468 12.6055C18.0265 11.1602 18.0265 6.83203 17.9468 5.38672ZM16.133 14.1562C15.837 14.9219 15.264 15.5117 14.5164 15.8203C13.397 16.2773 10.7408 16.1719 9.50371 16.1719C8.26666 16.1719 5.60661 16.2734 4.49099 15.8203C3.74724 15.5156 3.17425 14.9258 2.87447 14.1562C2.4305 13.0039 2.53295 10.2695 2.53295 8.99609C2.53295 7.72266 2.43429 4.98437 2.87447 3.83594C3.17045 3.07031 3.74344 2.48047 4.49099 2.17187C5.61041 1.71484 8.26666 1.82031 9.50371 1.82031C10.7408 1.82031 13.4008 1.71875 14.5164 2.17187C15.2602 2.47656 15.8332 3.06641 16.133 3.83594C16.5769 4.98828 16.4745 7.72266 16.4745 8.99609C16.4745 10.2695 16.5769 13.0078 16.133 14.1562Z" fill="black"/>
</svg>
