<svg width="16" height="16" viewBox="0 0 16 16" fill="none" xmlns="http://www.w3.org/2000/svg">
<path d="M3.58143 15.7496H0.264286V5.23441H3.58143V15.7496ZM1.92107 3.80004C0.860357 3.80004 0 2.9352 0 1.89105C7.59214e-09 1.38952 0.202398 0.908519 0.562669 0.553877C0.92294 0.199236 1.41157 0 1.92107 0C2.43057 0 2.9192 0.199236 3.27947 0.553877C3.63974 0.908519 3.84214 1.38952 3.84214 1.89105C3.84214 2.9352 2.98143 3.80004 1.92107 3.80004ZM15.9964 15.7496H12.6864V10.6309C12.6864 9.41098 12.6614 7.84652 10.9618 7.84652C9.23714 7.84652 8.97286 9.17191 8.97286 10.543V15.7496H5.65929V5.23441H8.84071V6.66879H8.88714C9.33 5.84262 10.4118 4.97074 12.0257 4.97074C15.3829 4.97074 16 7.14691 16 9.97348V15.7496H15.9964Z" fill="black"/>
</svg>
